HIERARCHY
ROOT Hips
{
	OFFSET 0.000000 0.000000 0.000000
	CHANNELS 6 Xposition Yposition Zposition Zrotation Yrotation Xrotation 
	JOINT LHipJoint
	{
		OFFSET 0.000000 0.000000 0.000000
		CHANNELS 3 Zrotation Yrotation Xrotation
		JOINT LeftUpLeg
		{
			OFFSET 1.363060 -1.794630 0.839290
			CHANNELS 3 Zrotation Yrotation Xrotation
			JOINT LeftLeg
			{
				OFFSET 2.448110 -6.726130 0.000000
				CHANNELS 3 Zrotation Yrotation Xrotation
				JOINT LeftFoot
				{
					OFFSET 2.562200 -7.039590 0.000000
					CHANNELS 3 Zrotation Yrotation Xrotation
					JOINT LeftToeBase
					{
						OFFSET 0.157640 -0.433110 2.322550
						CHANNELS 3 Zrotation Yrotation Xrotation
						End Site
						{
							OFFSET 0.000000 0.000000 0.000000
						}
					}
				}
			}
		}
	}
	JOINT RHipJoint
	{
		OFFSET 0.000000 0.000000 0.000000
		CHANNELS 3 Zrotation Yrotation Xrotation
		JOINT RightUpLeg
		{
			OFFSET -1.305520 -1.794630 0.839290
			CHANNELS 3 Zrotation Yrotation Xrotation
			JOINT RightLeg
			{
				OFFSET -2.542530 -6.985550 0.000000
				CHANNELS 3 Zrotation Yrotation Xrotation
				JOINT RightFoot
				{
					OFFSET -2.568260 -7.056230 0.000000
					CHANNELS 3 Zrotation Yrotation Xrotation
					JOINT RightToeBase
					{
						OFFSET -0.164730 -0.452590 2.363150
						CHANNELS 3 Zrotation Yrotation Xrotation
						End Site
						{
							OFFSET 0.000000 0.000000 0.000000
						}
					}
				}
			}
		}
	}
	JOINT LowerBack
	{
		OFFSET 0.000000 0.000000 0.000000
		CHANNELS 3 Zrotation Yrotation Xrotation
		JOINT Spine
		{
			OFFSET 0.028270 2.035590 -0.193380
			CHANNELS 3 Zrotation Yrotation Xrotation
			JOINT Spine1
			{
				OFFSET 0.056720 2.048850 -0.042750
				CHANNELS 3 Zrotation Yrotation Xrotation
				JOINT Neck
				{
					OFFSET 0.000000 0.000000 0.000000
					CHANNELS 3 Zrotation Yrotation Xrotation
					JOINT Neck1
					{
						OFFSET -0.054170 1.746240 0.172020
						CHANNELS 3 Zrotation Yrotation Xrotation
						JOINT Head
						{
							OFFSET 0.104070 1.761360 -0.123970
							CHANNELS 3 Zrotation Yrotation Xrotation
							End Site
							{
								OFFSET 0.000000 0.000000 0.000000
							}
						}
					}
				}
				JOINT LeftShoulder
				{
					OFFSET 0.000000 0.000000 0.000000
					CHANNELS 3 Zrotation Yrotation Xrotation
					JOINT LeftArm
					{
						OFFSET 3.362410 1.200890 -0.311210
						CHANNELS 3 Zrotation Yrotation Xrotation
						JOINT LeftForeArm
						{
							OFFSET 4.983000 -0.000000 -0.000000
							CHANNELS 3 Zrotation Yrotation Xrotation
							JOINT LeftHand
							{
								OFFSET 3.483560 -0.000000 -0.000000
								CHANNELS 3 Zrotation Yrotation Xrotation
								JOINT LeftFingerBase
								{
									OFFSET 0.000000 0.000000 0.000000
									CHANNELS 3 Zrotation Yrotation Xrotation
									JOINT LeftHandIndex1
									{
										OFFSET 0.715260 -0.000000 -0.000000
										CHANNELS 3 Zrotation Yrotation Xrotation
										End Site
										{
											OFFSET 0.000000 0.000000 0.000000
										}
									}
								}
								JOINT LThumb
								{
									OFFSET 0.000000 0.000000 0.000000
									CHANNELS 3 Zrotation Yrotation Xrotation
									End Site
									{
										OFFSET 0.000000 0.000000 0.000000
									}
								}
							}
						}
					}
				}
				JOINT RightShoulder
				{
					OFFSET 0.000000 0.000000 0.000000
					CHANNELS 3 Zrotation Yrotation Xrotation
					JOINT RightArm
					{
						OFFSET -3.136600 1.374050 -0.404650
						CHANNELS 3 Zrotation Yrotation Xrotation
						JOINT RightForeArm
						{
							OFFSET -5.241900 -0.000000 -0.000000
							CHANNELS 3 Zrotation Yrotation Xrotation
							JOINT RightHand
							{
								OFFSET -3.444170 -0.000000 -0.000000
								CHANNELS 3 Zrotation Yrotation Xrotation
								JOINT RightFingerBase
								{
									OFFSET 0.000000 0.000000 0.000000
									CHANNELS 3 Zrotation Yrotation Xrotation
									JOINT RightHandIndex1
									{
										OFFSET -0.622530 -0.000000 -0.000000
										CHANNELS 3 Zrotation Yrotation Xrotation
										End Site
										{
											OFFSET 0.000000 0.000000 0.000000
										}
									}
								}
								JOINT RThumb
								{
									OFFSET 0.000000 0.000000 0.000000
									CHANNELS 3 Zrotation Yrotation Xrotation
									End Site
									{
										OFFSET 0.000000 0.000000 0.000000
									}
								}
							}
						}
					}
				}
			}
		}
	}
}
MOTION
Frames: 9
Frame Time: 0.008333
-43.155895 17.505001 1.666913 -54.231014 83.926085 -46.595523 19.679971 4.174998 -1.830162 -36.261719 -26.424051 10.467450 -12.699803 0.534014 3.589515 4.294876 3.519927 -37.760634 5.864900 -14.296100 -44.437000 -25.372988 -2.709263 -4.057636 53.398681 24.471200 17.459895 14.779741 5.618905 -8.742350 -2.636667 -20.042125 -31.709032 -0.021400 0.944600 -2.596500 1.387241 0.755336 13.986071 2.891180 1.870519 -6.303063 4.468271 1.835024 -20.871251 3.847916 4.054192 -21.882027 -1.166489 7.464088 24.710550 -2.330700 3.824800 18.890100 8.996989 -7.516762 1.023495 -90.234480 17.967712 21.657985 17.083062 -30.788216 -5.932587 1.559465 3.194802 4.566679 46.410323 37.570136 29.194400 -7.125000 0.000000 0.000000 22.166900 72.315600 14.589200 -8.631595 7.389384 2.144319 75.719360 -21.390511 50.693322 -29.534696 41.634755 -8.853073 0.039068 -3.164709 -13.328978 -31.086324 -20.461945 9.734800 7.125000 0.000000 0.000000 -2.600000 -49.426100 0.283900 
-43.156969 17.503283 1.656926 -53.818629 83.776721 -46.023592 19.634290 4.159776 -1.816984 -36.143046 -26.583326 10.298872 -12.636869 0.599831 3.650712 4.462532 2.288418 -38.060107 5.495500 -13.921000 -42.922000 -25.384528 -2.670132 -4.041593 53.436844 24.677361 17.299358 14.747377 5.587977 -8.747437 -2.725833 -19.503570 -32.124243 -0.004800 0.446400 -1.226500 1.721731 0.804656 13.869979 2.768832 2.014172 -6.376906 3.903529 1.801846 -21.015045 3.948936 3.902026 -21.650558 -1.070304 7.189035 24.780823 -2.325900 3.762200 18.854700 8.946831 -7.503977 1.021954 -89.675581 18.096716 22.363761 17.519641 -31.088986 -5.987156 1.345163 3.232050 4.060410 43.523939 37.110993 26.668500 -7.125000 0.000000 0.000000 16.683700 70.949200 10.416100 -8.656363 7.396479 2.141847 76.212773 -21.534245 50.560364 -29.408782 41.587350 -8.784540 0.031378 -3.171534 -13.302654 -30.991291 -20.230998 9.568100 7.125000 0.000000 0.000000 -2.524900 -49.144700 0.258200 
-43.160297 17.504357 1.648443 -54.708383 83.707408 -46.913273 19.631612 4.169786 -1.809711 -36.028903 -26.594934 10.241597 -12.582473 0.622618 3.679720 4.558272 1.144557 -38.078782 5.138300 -13.537800 -41.416700 -25.368951 -2.659670 -4.042622 53.509724 24.658423 17.269700 14.754180 5.588044 -8.769496 -2.738611 -19.557957 -32.263944 -0.008100 0.582800 -1.601400 1.960871 0.718506 14.013948 2.736715 1.952912 -6.403914 3.707907 1.724696 -21.143483 3.998922 3.885586 -21.681245 -1.037121 7.141554 24.840680 -2.315000 3.753600 18.903900 8.941763 -7.504353 1.026864 -89.490240 18.079992 22.501452 17.786091 -31.231694 -5.956005 1.158793 3.245399 3.948191 40.096132 35.356340 23.123100 -7.125000 0.000000 0.000000 11.209200 68.004600 6.225500 -8.666176 7.395118 2.136267 76.291084 -21.489000 50.825071 -29.334691 41.537983 -8.748657 0.025392 -3.179563 -13.381497 -31.122041 -20.351835 9.674900 7.125000 0.000000 0.000000 -2.630700 -49.292400 0.278600 
-43.164485 17.503713 1.641570 -56.011612 83.610052 -48.281064 19.634202 4.203799 -1.804683 -35.796298 -26.415847 10.115819 -12.493559 0.708802 3.876367 4.561986 -0.452886 -37.524861 4.813500 -13.170700 -40.010800 -25.363171 -2.648191 -4.047792 53.667363 24.584845 17.300354 14.790845 5.603010 -8.802944 -2.687769 -20.067739 -32.134637 -0.026400 1.048200 -2.881400 2.315451 0.627700 14.336313 2.673143 1.928654 -6.470688 3.368459 1.637044 -21.474108 4.017660 3.823749 -21.701700 -0.868708 7.015429 24.943214 -2.217600 3.724200 18.952700 8.909076 -7.514673 1.030807 -89.179362 18.192983 22.739246 18.076253 -31.349452 -5.911585 0.964719 3.239267 3.837056 36.770888 33.531264 19.892200 -7.125000 0.000000 0.000000 6.898800 65.092100 3.359000 -8.677701 7.415080 2.138221 76.523928 -21.624267 50.923575 -29.151700 41.389161 -8.647454 0.010093 -3.179831 -13.305305 -31.072320 -20.050541 9.489400 7.125000 0.000000 0.000000 -2.603800 -48.947000 0.253600 
-43.163197 17.503069 1.634590 -56.519886 83.561671 -48.888194 19.650243 4.234939 -1.787017 -35.746027 -26.276864 10.107314 -12.422676 0.770594 4.030802 4.590231 -1.980813 -37.150722 4.457300 -12.745300 -38.422200 -25.349509 -2.639845 -4.050653 53.769055 24.495023 17.433806 14.807713 5.654603 -8.875883 -2.669912 -20.264443 -32.081810 -0.021800 0.952500 -2.618200 2.687575 0.617889 14.831830 2.507915 2.060063 -6.640541 2.680780 1.574167 -22.198063 4.045138 3.633751 -21.554167 -0.479724 6.684599 25.172909 -2.002200 3.657000 19.005500 8.801475 -7.531209 1.033032 -88.497027 18.664209 23.601077 18.590467 -31.620176 -5.934171 0.744985 3.213771 3.503557 33.816210 32.214046 17.432600 -7.125000 0.000000 0.000000 3.539400 62.941200 1.542900 -8.691875 7.479303 2.154589 77.249881 -22.159402 50.493434 -28.797692 41.125856 -8.466249 -0.016363 -3.187392 -12.902984 -30.848455 -19.631149 9.174800 7.125000 0.000000 0.000000 -2.423500 -48.433800 0.205400 
-43.160405 17.503605 1.625248 -55.913696 83.644799 -48.365774 19.664710 4.232723 -1.764081 -35.978448 -26.291182 10.254542 -12.393473 0.749215 3.989159 4.689813 -3.275000 -37.271524 4.058600 -12.238000 -36.579300 -25.325715 -2.647583 -4.035285 53.658452 24.447302 17.515421 14.796317 5.669488 -8.867579 -2.681894 -20.125875 -32.126328 -0.008300 0.587600 -1.614600 2.633856 0.517978 15.132887 2.505096 1.954675 -6.835664 2.467404 1.478856 -22.421097 4.157047 3.686707 -21.555275 -0.268694 6.717366 25.305305 -1.875400 3.709300 19.077200 8.768420 -7.523893 1.033615 -88.229850 18.915425 24.179905 19.327660 -32.123798 -5.950735 0.371156 3.203204 3.079018 28.527276 30.935025 13.941800 -7.125000 0.000000 0.000000 -2.128200 60.374300 -0.798200 -8.702032 7.499742 2.145585 77.533459 -22.268401 50.527247 -28.443769 40.820777 -8.276097 -0.024853 -3.190197 -12.529836 -30.456744 -19.471635 8.953700 7.125000 0.000000 0.000000 -2.066400 -48.197300 0.163100 
-43.162445 17.501780 1.614080 -54.868924 83.698878 -47.296976 19.651045 4.216237 -1.766598 -36.147963 -26.310764 10.269596 -12.375629 0.720949 3.880791 4.803143 -4.308088 -37.612939 3.697100 -11.746000 -34.839200 -25.317859 -2.647609 -4.023757 53.496105 24.530929 17.412386 14.777273 5.600164 -8.735881 -2.710777 -19.843156 -32.232228 -0.002000 0.287600 -0.790300 2.521216 0.558850 15.092049 2.481578 1.985671 -6.840500 2.443652 1.500732 -22.416721 4.104136 3.685848 -21.568782 -0.225753 6.735094 25.315010 -1.837000 3.712300 19.080500 8.770724 -7.519246 1.025134 -88.126501 18.717625 24.380732 19.426063 -32.172459 -5.931602 0.333169 3.180713 2.855776 27.905152 30.106855 13.257400 -7.125000 0.000000 0.000000 -2.516400 59.387800 -0.884600 -8.714456 7.506774 2.154634 77.554165 -22.387672 50.393845 -28.176064 40.573038 -8.151460 -0.029379 -3.198440 -12.326578 -30.300731 -19.600368 8.965800 7.125000 0.000000 0.000000 -1.903900 -48.311500 0.155600 
-43.164378 17.499525 1.605060 -54.662102 83.650601 -47.058129 19.642271 4.215938 -1.775340 -36.158958 -26.352944 10.250738 -12.337182 0.716382 3.836807 4.886440 -5.382959 -37.793469 3.343700 -11.231700 -33.065300 -25.328067 -2.636834 -4.034427 53.495962 24.594572 17.334393 14.789169 5.555837 -8.661597 -2.684225 -20.045891 -32.159549 -0.008500 0.593900 -1.631900 2.612995 0.572084 15.042344 2.408138 2.010479 -6.730067 2.389104 1.514545 -22.538874 4.025677 3.618509 -21.568791 -0.139235 6.639705 25.325455 -1.779300 3.671600 19.075000 8.754438 -7.519462 1.028546 -88.009134 18.552284 24.579315 19.563642 -32.294464 -5.983328 0.317963 3.180863 2.551901 28.013797 30.211444 13.361700 -7.125000 0.000000 0.000000 -2.432700 59.523600 -0.863100 -8.734943 7.520112 2.170273 77.558472 -22.427042 50.463752 -27.866561 40.300460 -8.029749 -0.050752 -3.220106 -12.309096 -30.591323 -20.020432 9.276300 7.125000 0.000000 0.000000 -2.120100 -48.802700 0.198900 
-43.164915 17.497807 1.596362 -54.571728 83.598933 -46.995230 19.625105 4.217136 -1.757539 -36.161620 -26.405920 10.307724 -12.286285 0.707228 3.820110 4.929873 -6.653437 -37.755628 2.997400 -10.690900 -31.244200 -25.347997 -2.628113 -4.020556 53.506623 24.634014 17.307848 14.811479 5.541550 -8.630791 -2.606174 -20.519292 -31.829787 -0.040500 1.298200 -3.569800 2.610296 0.597154 15.044477 2.455518 2.060179 -6.861867 2.322431 1.513404 -22.444424 3.917343 3.489359 -21.636514 -0.007980 6.463896 25.384505 -1.696100 3.601000 19.095700 8.745904 -7.503702 1.013530 -87.942945 18.485611 24.762632 19.752215 -32.493567 -6.075158 0.306041 3.190087 2.334068 28.279702 30.771438 13.752200 -7.125000 0.000000 0.000000 -2.335900 60.167000 -0.864600 -8.754140 7.513830 2.157522 77.599948 -22.433800 50.591115 -27.488863 39.965340 -7.858361 -0.071711 -3.229637 -12.348830 -30.659235 -19.995371 9.277300 7.125000 0.000000 0.000000 -2.166000 -48.778600 0.202000 
